<svg width="65" height="59" viewBox="0 0 65 59" fill="none" xmlns="http://www.w3.org/2000/svg">
<g filter="url(#filter0_f_35_67)">
<ellipse rx="14.6847" ry="14.7556" transform="matrix(-0.722711 -0.691151 0.676331 -0.736598 21.5895 21.6326)" fill="url(#paint0_linear_35_67)"/>
</g>
<g filter="url(#filter1_b_35_67)">
<rect x="44.304" y="57.0676" width="28.6134" height="44.0801" rx="5" transform="rotate(-180 44.304 57.0676)" fill="white" fill-opacity="0.12"/>
<rect x="44.154" y="56.9176" width="28.3134" height="43.7801" rx="4.85" transform="rotate(-180 44.154 56.9176)" stroke="url(#paint1_linear_35_67)" stroke-width="0.3"/>
</g>
<g clip-path="url(#clip0_35_67)">
<path d="M27.6167 35.4143H22.1792C21.4285 35.4143 20.8198 36.0229 20.8198 36.7736V53.0862H28.9761V36.7736C28.9761 36.0229 28.3674 35.4143 27.6167 35.4143ZM38.4917 16.383H33.0542C32.3035 16.383 31.6948 16.9916 31.6948 17.7424V53.0862H39.8511V17.7424C39.8511 16.9916 39.2425 16.383 38.4917 16.383ZM49.3667 40.8518H43.9292C43.1785 40.8518 42.5698 41.4604 42.5698 42.2112V53.0862H50.7261V42.2112C50.7261 41.4604 50.1175 40.8518 49.3667 40.8518ZM60.2417 21.8205H54.8042C54.0535 21.8205 53.4449 22.4291 53.4449 23.1799V53.0862H61.6011V23.1799C61.6011 22.4291 60.9925 21.8205 60.2417 21.8205Z" fill="url(#paint2_linear_35_67)"/>
<path d="M63.0512 51.7268H19.3699C18.6191 51.7268 18.0105 52.3354 18.0105 53.0862C18.0105 53.8369 18.6191 54.4456 19.3699 54.4456H63.0512C63.8019 54.4456 64.4106 53.8369 64.4106 53.0862C64.4106 52.3354 63.8019 51.7268 63.0512 51.7268Z" fill="#82B5FF"/>
</g>
<defs>
<filter id="filter0_f_35_67" x="6.02148" y="5.76166" width="31.136" height="31.7419" filterUnits="userSpaceOnUse" color-interpolation-filters="sRGB">
<feFlood flood-opacity="0" result="BackgroundImageFix"/>
<feBlend mode="normal" in="SourceGraphic" in2="BackgroundImageFix" result="shape"/>
<feGaussianBlur stdDeviation="0.5" result="effect1_foregroundBlur_35_67"/>
</filter>
<filter id="filter1_b_35_67" x="10.6907" y="7.98755" width="38.6133" height="54.0801" filterUnits="userSpaceOnUse" color-interpolation-filters="sRGB">
<feFlood flood-opacity="0" result="BackgroundImageFix"/>
<feGaussianBlur in="BackgroundImage" stdDeviation="2.5"/>
<feComposite in2="SourceAlpha" operator="in" result="effect1_backgroundBlur_35_67"/>
<feBlend mode="normal" in="SourceGraphic" in2="effect1_backgroundBlur_35_67" result="shape"/>
</filter>
<linearGradient id="paint0_linear_35_67" x1="-0.0258247" y1="8.66069" x2="34.2182" y2="27.0213" gradientUnits="userSpaceOnUse">
<stop offset="0.432292" stop-color="#B973CB"/>
<stop offset="0.713542" stop-color="#82B5FF"/>
<stop offset="0.927083" stop-color="#D5AA7B"/>
</linearGradient>
<linearGradient id="paint1_linear_35_67" x1="41.3234" y1="40.5376" x2="86.8499" y2="50.1685" gradientUnits="userSpaceOnUse">
<stop stop-color="white"/>
<stop offset="0.511276" stop-color="white" stop-opacity="0"/>
<stop offset="1" stop-color="white" stop-opacity="0.796261"/>
</linearGradient>
<linearGradient id="paint2_linear_35_67" x1="41.2105" y1="53.0862" x2="41.2105" y2="16.383" gradientUnits="userSpaceOnUse">
<stop stop-color="#65A3FE"/>
<stop offset="1" stop-color="#1370FA"/>
</linearGradient>
<clipPath id="clip0_35_67">
<rect width="46.4001" height="46.4001" fill="white" transform="translate(18.0105 12.2142)"/>
</clipPath>
</defs>
</svg>
