<svg width="87" height="87" viewBox="0 0 87 87" fill="none" xmlns="http://www.w3.org/2000/svg">
<g opacity="0.8" clip-path="url(#clip0_18_195)">
<path d="M80.0033 6.84155H0.506836V86.4894H80.0033V6.84155Z" stroke="white" stroke-width="3.17518"/>
<path d="M86.4932 0.510498H7.40234V80.1584H86.4932V0.510498Z" stroke="white" stroke-width="3.17518"/>
<path d="M29.2129 38.7007L25.8333 46.5634H24.0486L20.6802 38.7007H22.6321L25.0079 44.3169L27.4171 38.7007H29.2129ZM35.1735 43.5643C35.1735 43.5868 35.1623 43.744 35.14 44.0361H30.6004C30.6821 44.4104 30.8756 44.7063 31.1804 44.9234C31.4852 45.1405 31.8644 45.2492 32.3181 45.2492C32.6304 45.2492 32.9056 45.2042 33.1435 45.1144C33.3889 45.017 33.6156 44.8673 33.8239 44.6651L34.7496 45.676C34.1844 46.3275 33.3591 46.6532 32.2735 46.6532C31.5968 46.6532 30.9983 46.5221 30.4777 46.2601C29.9571 45.9905 29.5556 45.6198 29.2731 45.1481C28.9906 44.6763 28.8493 44.1408 28.8493 43.5418C28.8493 42.9502 28.9867 42.4186 29.2619 41.9468C29.5444 41.4675 29.9275 41.0969 30.4108 40.8348C30.9016 40.5653 31.4481 40.4305 32.0504 40.4305C32.6379 40.4305 33.1694 40.5577 33.6454 40.8124C34.1214 41.067 34.4931 41.4338 34.7608 41.9131C35.036 42.3849 35.1735 42.9353 35.1735 43.5643ZM32.0616 41.7559C31.6675 41.7559 31.3366 41.8682 31.0689 42.0929C30.8012 42.3175 30.6375 42.6245 30.5781 43.0139H33.5339C33.4744 42.632 33.3108 42.3287 33.0431 42.1041C32.7754 41.8719 32.4483 41.7559 32.0616 41.7559ZM39.9792 40.4305C40.7228 40.4305 41.3215 40.6551 41.7749 41.1044C42.2361 41.5537 42.4665 42.2201 42.4665 43.1038V46.5634H40.7265V43.3734C40.7265 42.894 40.6224 42.5385 40.4142 42.3063C40.2061 42.0667 39.9049 41.9468 39.5107 41.9468C39.0721 41.9468 38.7226 42.0853 38.4622 42.3624C38.2021 42.632 38.0719 43.0364 38.0719 43.5755V46.5634H36.3319V40.5203H37.9938V41.228C38.2244 40.9733 38.5107 40.7787 38.8526 40.6439C39.1947 40.5015 39.5703 40.4305 39.9792 40.4305ZM47.9142 46.2713C47.7431 46.3986 47.5311 46.496 47.2784 46.5634C47.0331 46.6232 46.7727 46.6532 46.4977 46.6532C45.7838 46.6532 45.2298 46.4698 44.8358 46.1028C44.449 45.7358 44.2558 45.1967 44.2558 44.4854V42.003H43.33V40.6551H44.2558V39.1837H45.9958V40.6551H47.4904V42.003H45.9958V44.4629C45.9958 44.7176 46.0588 44.9159 46.1854 45.0582C46.3192 45.193 46.505 45.2604 46.7431 45.2604C47.0181 45.2604 47.2523 45.1855 47.4458 45.0358L47.9142 46.2713ZM54.9363 40.5203V46.5634H53.2855V45.8445C53.0549 46.1065 52.7799 46.3087 52.4601 46.451C52.1403 46.5858 51.7945 46.6532 51.4228 46.6532C50.6345 46.6532 50.0099 46.4249 49.549 45.968C49.088 45.5112 48.8574 44.8336 48.8574 43.935V40.5203H50.5974V43.6766C50.5974 44.6502 51.0026 45.1368 51.8132 45.1368C52.2295 45.1368 52.5642 45.0021 52.817 44.7325C53.0699 44.4553 53.1963 44.0473 53.1963 43.5081V40.5203H54.9363ZM58.2102 41.3178C58.4185 41.0258 58.6974 40.8048 59.0468 40.6551C59.4037 40.5054 59.8127 40.4305 60.2737 40.4305V42.0479C60.0804 42.033 59.9502 42.0255 59.8833 42.0255C59.385 42.0255 58.9946 42.1678 58.7122 42.4523C58.4297 42.7294 58.2883 43.1487 58.2883 43.7103V46.5634H56.5483V40.5203H58.2102V41.3178ZM67.1319 43.5643C67.1319 43.5868 67.1207 43.744 67.0984 44.0361H62.5588C62.6405 44.4104 62.834 44.7063 63.1388 44.9234C63.4436 45.1405 63.8228 45.2492 64.2765 45.2492C64.5888 45.2492 64.864 45.2042 65.1019 45.1144C65.3473 45.017 65.574 44.8673 65.7823 44.6651L66.708 45.676C66.1428 46.3275 65.3175 46.6532 64.2319 46.6532C63.5552 46.6532 62.9567 46.5221 62.4361 46.2601C61.9155 45.9905 61.514 45.6198 61.2315 45.1481C60.949 44.6763 60.8077 44.1408 60.8077 43.5418C60.8077 42.9502 60.9452 42.4186 61.2204 41.9468C61.5028 41.4675 61.8859 41.0969 62.3692 40.8348C62.86 40.5653 63.4065 40.4305 64.0088 40.4305C64.5963 40.4305 65.1278 40.5577 65.6038 40.8124C66.0798 41.067 66.4515 41.4338 66.7192 41.9131C66.9944 42.3849 67.1319 42.9353 67.1319 43.5643ZM64.02 41.7559C63.6259 41.7559 63.295 41.8682 63.0273 42.0929C62.7596 42.3175 62.5959 42.6245 62.5365 43.0139H65.4923C65.4329 42.632 65.2692 42.3287 65.0015 42.1041C64.7338 41.8719 64.4067 41.7559 64.02 41.7559ZM70.3091 46.6532C69.811 46.6532 69.3239 46.5934 68.848 46.4735C68.3722 46.3463 67.993 46.189 67.7103 46.0017L68.2903 44.7437C68.558 44.9159 68.8814 45.0582 69.2607 45.1705C69.6399 45.2753 70.0118 45.3278 70.376 45.3278C71.1122 45.3278 71.4803 45.1444 71.4803 44.7774C71.4803 44.6052 71.3799 44.4817 71.1791 44.4067C70.9783 44.3318 70.6699 44.2683 70.2533 44.2158C69.7626 44.1408 69.3574 44.0549 69.0376 43.9574C68.718 43.86 68.4391 43.6879 68.201 43.4408C67.9707 43.1936 67.8553 42.8418 67.8553 42.3849C67.8553 42.003 67.9632 41.666 68.1787 41.374C68.4018 41.0744 68.7216 40.8424 69.138 40.6776C69.5618 40.5128 70.0601 40.4305 70.6326 40.4305C71.0564 40.4305 71.4766 40.4791 71.893 40.5765C72.3168 40.6664 72.6664 40.7936 72.9414 40.9584L72.3614 42.2052C71.8335 41.9056 71.2572 41.7559 70.6326 41.7559C70.2608 41.7559 69.982 41.8084 69.796 41.9131C69.6103 42.0179 69.5172 42.1527 69.5172 42.3175C69.5172 42.5048 69.6176 42.6357 69.8183 42.7106C70.0191 42.7856 70.3389 42.8567 70.7776 42.9241C71.2683 43.0064 71.6699 43.0962 71.9822 43.1936C72.2945 43.2835 72.566 43.452 72.7964 43.6991C73.027 43.9462 73.1422 44.2907 73.1422 44.7325C73.1422 45.1068 73.0307 45.4401 72.8076 45.7322C72.5845 46.0242 72.2574 46.2525 71.826 46.4173C71.4022 46.5746 70.8966 46.6532 70.3091 46.6532Z" fill="white"/>
<path d="M47.6066 36.0784C46.9895 36.0784 46.3908 35.9961 45.8108 35.8313C45.2383 35.6591 44.7772 35.4382 44.4277 35.1686L45.0412 33.7982C45.3758 34.0454 45.7737 34.2439 46.2347 34.3936C46.6956 34.5433 47.1568 34.6182 47.6177 34.6182C48.1308 34.6182 48.51 34.5433 48.7554 34.3936C49.0008 34.2363 49.1235 34.0304 49.1235 33.7758C49.1235 33.5885 49.0491 33.4351 48.9004 33.3153C48.7591 33.188 48.5733 33.0869 48.3427 33.012C48.1197 32.937 47.8149 32.8547 47.4281 32.7649C46.8333 32.6225 46.3462 32.4804 45.967 32.338C45.5877 32.1957 45.2606 31.9674 44.9854 31.6529C44.7177 31.3384 44.5839 30.9191 44.5839 30.3948C44.5839 29.938 44.7066 29.5263 44.952 29.1593C45.1974 28.7849 45.5654 28.489 46.0562 28.2719C46.5545 28.0548 47.1604 27.9462 47.8743 27.9462C48.3725 27.9462 48.8595 28.006 49.3354 28.1259C49.8114 28.2458 50.2277 28.4179 50.5847 28.6426L50.027 30.0242C49.3056 29.6122 48.5845 29.4064 47.8631 29.4064C47.3575 29.4064 46.982 29.4887 46.7366 29.6535C46.4987 29.8183 46.3797 30.0354 46.3797 30.305C46.3797 30.5745 46.5172 30.7767 46.7924 30.9115C47.0748 31.0388 47.5025 31.1662 48.075 31.2934C48.6698 31.4358 49.157 31.5779 49.5362 31.7203C49.9154 31.8626 50.2389 32.0872 50.5066 32.3942C50.7818 32.7011 50.9193 33.1167 50.9193 33.641C50.9193 34.0903 50.7929 34.5022 50.54 34.8766C50.2947 35.2435 49.9229 35.5356 49.4247 35.7527C48.9264 35.9698 48.3204 36.0784 47.6066 36.0784ZM55.9016 35.6516C55.7306 35.7788 55.5187 35.8762 55.2658 35.9436C55.0204 36.0035 54.7603 36.0335 54.4851 36.0335C53.7712 36.0335 53.2174 35.8501 52.8231 35.4831C52.4366 35.1161 52.2431 34.577 52.2431 33.8656V31.3833H51.3174V30.0354H52.2431V28.564H53.9831V30.0354H55.4778V31.3833H53.9831V33.8432C53.9831 34.0978 54.0464 34.2961 54.1728 34.4385C54.3066 34.5733 54.4926 34.6407 54.7304 34.6407C55.0056 34.6407 55.2399 34.5657 55.4331 34.416L55.9016 35.6516ZM59.5487 36.0335C58.9166 36.0335 58.3477 35.9024 57.8422 35.6404C57.3439 35.3708 56.9535 35.0001 56.671 34.5284C56.3883 34.0566 56.2472 33.5211 56.2472 32.9221C56.2472 32.3231 56.3883 31.7876 56.671 31.3159C56.9535 30.8441 57.3439 30.4771 57.8422 30.2151C58.3477 29.9455 58.9166 29.8107 59.5487 29.8107C60.1806 29.8107 60.7458 29.9455 61.2441 30.2151C61.7422 30.4771 62.1325 30.8441 62.4152 31.3159C62.6977 31.7876 62.8391 32.3231 62.8391 32.9221C62.8391 33.5211 62.6977 34.0566 62.4152 34.5284C62.1325 35.0001 61.7422 35.3708 61.2441 35.6404C60.7458 35.9024 60.1806 36.0335 59.5487 36.0335ZM59.5487 34.5957C59.9949 34.5957 60.3591 34.446 60.6418 34.1464C60.9318 33.8395 61.0768 33.4313 61.0768 32.9221C61.0768 32.413 60.9318 32.0086 60.6418 31.709C60.3591 31.4021 59.9949 31.2485 59.5487 31.2485C59.1026 31.2485 58.7345 31.4021 58.4445 31.709C58.1545 32.0086 58.0095 32.413 58.0095 32.9221C58.0095 33.4313 58.1545 33.8395 58.4445 34.1464C58.7345 34.446 59.1026 34.5957 59.5487 34.5957ZM65.6641 30.6981C65.8721 30.4061 66.151 30.1851 66.5006 30.0354C66.8575 29.8857 67.2664 29.8107 67.7275 29.8107V31.4282C67.5341 31.4133 67.4041 31.4057 67.3371 31.4057C66.8389 31.4057 66.4485 31.5481 66.166 31.8326C65.8833 32.1097 65.7421 32.529 65.7421 33.0906V35.9436H64.0021V29.9006H65.6641V30.6981ZM74.9252 29.9006L72.2148 36.3143C71.9396 37.0107 71.5977 37.5013 71.1887 37.7857C70.7871 38.0702 70.3 38.2126 69.7275 38.2126C69.4152 38.2126 69.1065 38.164 68.8017 38.0666C68.4969 37.9691 68.2477 37.8343 68.0544 37.6622L68.6902 36.4154C68.824 36.5353 68.9766 36.6288 69.1475 36.6962C69.326 36.7636 69.5008 36.7973 69.6717 36.7973C69.9096 36.7973 70.1031 36.7375 70.2517 36.6176C70.4004 36.5053 70.5342 36.3143 70.6533 36.0447L70.6756 35.9886L68.0767 29.9006H69.8725L71.5567 34.0004L73.2521 29.9006H74.9252Z" fill="white"/>
</g>
<defs>
<clipPath id="clip0_18_195">
<rect width="87" height="87" fill="white"/>
</clipPath>
</defs>
</svg>
