<svg width="791" height="746" viewBox="0 0 791 746" fill="none" xmlns="http://www.w3.org/2000/svg">
<path fill-rule="evenodd" clip-rule="evenodd" d="M0 0H886V746H0V0ZM1.38437 1.33214H109.366V105.239H1.38437V1.33214ZM112.134 1.33214H220.116V105.239H112.134V1.33214ZM330.866 1.33214H222.884V105.239H330.866V1.33214ZM333.634 1.33214H441.616V105.239H333.634V1.33214ZM552.366 1.33214H444.384V105.239H552.366V1.33214ZM555.134 1.33214H663.116V105.239H555.134V1.33214ZM773.866 1.33214H665.884V105.239H773.866V1.33214ZM776.634 1.33214H884.616V105.239H776.634V1.33214ZM109.366 107.904H1.38437V211.811H109.366V107.904ZM112.134 107.904H220.116V211.811H112.134V107.904ZM330.866 107.904H222.884V211.811H330.866V107.904ZM333.634 107.904H441.616V211.811H333.634V107.904ZM552.366 107.904H444.384V211.811H552.366V107.904ZM555.134 107.904H663.116V211.811H555.134V107.904ZM773.866 107.904H665.884V211.811H773.866V107.904ZM776.634 107.904H884.616V211.811H776.634V107.904ZM109.366 214.475H1.38437V318.382H109.366V214.475ZM112.134 214.475H220.116V318.382H112.134V214.475ZM330.866 214.475H222.884V318.382H330.866V214.475ZM333.634 214.475H441.616V318.382H333.634V214.475ZM552.366 214.475H444.384V318.382H552.366V214.475ZM555.134 214.475H663.116V318.382H555.134V214.475ZM773.866 214.475H665.884V318.382H773.866V214.475ZM776.634 214.475H884.616V318.382H776.634V214.475ZM109.366 321.046H1.38437V424.954H109.366V321.046ZM112.134 321.046H220.116V424.954H112.134V321.046ZM330.866 321.046H222.884V424.954H330.866V321.046ZM333.634 321.046H441.616V424.954H333.634V321.046ZM552.366 321.046H444.384V424.954H552.366V321.046ZM555.134 321.046H663.116V424.954H555.134V321.046ZM773.866 321.046H665.884V424.954H773.866V321.046ZM776.634 321.046H884.616V424.954H776.634V321.046ZM109.366 427.618H1.38437V531.525H109.366V427.618ZM112.134 427.618H220.116V531.525H112.134V427.618ZM330.866 427.618H222.884V531.525H330.866V427.618ZM333.634 427.618H441.616V531.525H333.634V427.618ZM552.366 427.618H444.384V531.525H552.366V427.618ZM555.134 427.618H663.116V531.525H555.134V427.618ZM773.866 427.618H665.884V531.525H773.866V427.618ZM776.634 427.618H884.616V531.525H776.634V427.618ZM109.366 534.189H1.38437V638.096H109.366V534.189ZM112.134 534.189H220.116V638.096H112.134V534.189ZM330.866 534.189H222.884V638.096H330.866V534.189ZM333.634 534.189H441.616V638.096H333.634V534.189ZM552.366 534.189H444.384V638.096H552.366V534.189ZM555.134 534.189H663.116V638.096H555.134V534.189ZM773.866 534.189H665.884V638.096H773.866V534.189ZM776.634 534.189H884.616V638.096H776.634V534.189ZM109.366 640.761H1.38437V744.668H109.366V640.761ZM112.134 640.761H220.116V744.668H112.134V640.761ZM330.866 640.761H222.884V744.668H330.866V640.761ZM333.634 640.761H441.616V744.668H333.634V640.761ZM552.366 640.761H444.384V744.668H552.366V640.761ZM555.134 640.761H663.116V744.668H555.134V640.761ZM773.866 640.761H665.884V744.668H773.866V640.761ZM776.634 640.761H884.616V744.668H776.634V640.761Z" fill="url(#paint0_radial_18_187)" fill-opacity="0.14"/>
<defs>
<radialGradient id="paint0_radial_18_187" cx="0" cy="0" r="1" gradientUnits="userSpaceOnUse" gradientTransform="translate(257.92 347.824) rotate(4.4054) scale(327.755 389.662)">
<stop stop-color="white"/>
<stop offset="1" stop-color="white" stop-opacity="0"/>
</radialGradient>
</defs>
</svg>
